<svg width="212" height="40" viewBox="0 0 212 40" fill="none" xmlns="http://www.w3.org/2000/svg">
<path d="M20.9315 1.29075L21.1834 0.858838L20.9315 1.29075L32.5588 8.07208C34.3708 9.12887 35.5 11.1031 35.5 13.2239V26.776C35.5 28.8969 34.3708 30.8711 32.5587 31.9279L32.8061 32.3521L32.5587 31.9279L20.9315 38.7092C19.1239 39.7634 16.8767 39.7638 15.0685 38.7092L14.8166 39.1411L15.0685 38.7092L3.44122 31.9279L3.44121 31.9279C1.62922 30.8711 0.5 28.8969 0.5 26.776V13.2239C0.5 11.103 1.62922 9.12881 3.44128 8.07209L3.4413 8.07207L15.0685 1.29076C15.0685 1.29075 15.0685 1.29075 15.0685 1.29075C16.8764 0.236445 19.1237 0.236391 20.9315 1.29075ZM31.519 9.91584L31.2671 10.3477L31.519 9.91583L19.8917 3.1346C18.725 2.45404 17.2756 2.45378 16.1083 3.13459L4.48113 9.91589C4.48112 9.9159 4.48111 9.91591 4.48109 9.91591C3.31242 10.5974 2.59013 11.8649 2.59013 13.2239V26.776C2.59013 28.1351 3.31244 29.4025 4.48101 30.0841L16.1083 36.8654C17.2754 37.5462 18.7245 37.5462 19.8916 36.8654L31.5189 30.0841C32.6876 29.4026 33.4099 28.1351 33.4099 26.776V13.2239C33.4099 11.8648 32.6876 10.5974 31.519 9.91584Z" fill="#445964" stroke="black"/>
<path d="M64.9315 1.29075L65.1834 0.858838L64.9315 1.29075L76.5588 8.07208C78.3708 9.12887 79.5 11.1031 79.5 13.2239V26.776C79.5 28.8969 78.3708 30.8711 76.5587 31.9279L76.8061 32.3521L76.5587 31.9279L64.9315 38.7092C63.1239 39.7634 60.8767 39.7638 59.0685 38.7092L58.8166 39.1411L59.0685 38.7092L47.4412 31.9279L47.4412 31.9279C45.6292 30.8711 44.5 28.8969 44.5 26.776V13.2239C44.5 11.103 45.6292 9.12881 47.4413 8.07209L47.4413 8.07207L59.0685 1.29076C59.0685 1.29075 59.0685 1.29075 59.0685 1.29075C60.8764 0.236445 63.1237 0.236391 64.9315 1.29075ZM75.519 9.91584L75.2671 10.3477L75.519 9.91583L63.8917 3.1346C62.725 2.45404 61.2756 2.45378 60.1083 3.13459L48.4811 9.91589C48.4811 9.9159 48.4811 9.91591 48.4811 9.91591C47.3124 10.5974 46.5901 11.8649 46.5901 13.2239V26.776C46.5901 28.1351 47.3124 29.4025 48.481 30.0841L60.1083 36.8654C61.2754 37.5462 62.7245 37.5462 63.8916 36.8654L75.5189 30.0841C76.6876 29.4026 77.4099 28.1351 77.4099 26.776V13.2239C77.4099 11.8648 76.6876 10.5974 75.519 9.91584Z" fill="#445964" stroke="black"/>
<path d="M108.931 1.29075L109.183 0.858838L108.931 1.29075L120.559 8.07208C122.371 9.12887 123.5 11.1031 123.5 13.2239V26.776C123.5 28.8969 122.371 30.8711 120.559 31.9279L120.806 32.3521L120.559 31.9279L108.931 38.7092C107.124 39.7634 104.877 39.7638 103.069 38.7092L102.817 39.1411L103.069 38.7092L91.4412 31.9279L91.4412 31.9279C89.6292 30.8711 88.5 28.8969 88.5 26.776V13.2239C88.5 11.103 89.6292 9.12881 91.4413 8.07209L91.4413 8.07207L103.069 1.29076C103.069 1.29075 103.069 1.29075 103.069 1.29075C104.876 0.236445 107.124 0.236391 108.931 1.29075ZM119.519 9.91584L119.267 10.3477L119.519 9.91583L107.892 3.1346C106.725 2.45404 105.276 2.45378 104.108 3.13459L92.4811 9.91589C92.4811 9.9159 92.4811 9.91591 92.4811 9.91591C91.3124 10.5974 90.5901 11.8649 90.5901 13.2239V26.776C90.5901 28.1351 91.3124 29.4025 92.481 30.0841L104.108 36.8654C105.275 37.5462 106.724 37.5462 107.892 36.8654L119.519 30.0841C120.688 29.4026 121.41 28.1351 121.41 26.776V13.2239C121.41 11.8648 120.688 10.5974 119.519 9.91584Z" fill="#445964" stroke="black"/>
<path d="M152.931 1.29075L153.183 0.858838L152.931 1.29075L164.559 8.07208C166.371 9.12887 167.5 11.1031 167.5 13.2239V26.776C167.5 28.8969 166.371 30.8711 164.559 31.9279L164.806 32.3521L164.559 31.9279L152.931 38.7092C151.124 39.7634 148.877 39.7638 147.069 38.7092L146.817 39.1411L147.069 38.7092L135.441 31.9279L135.441 31.9279C133.629 30.8711 132.5 28.8969 132.5 26.776V13.2239C132.5 11.103 133.629 9.12881 135.441 8.07209L135.441 8.07207L147.069 1.29076C147.069 1.29075 147.069 1.29075 147.069 1.29075C148.876 0.236445 151.124 0.236391 152.931 1.29075ZM163.519 9.91584L163.267 10.3477L163.519 9.91583L151.892 3.1346C150.725 2.45404 149.276 2.45378 148.108 3.13459L136.481 9.91589C136.481 9.9159 136.481 9.91591 136.481 9.91591C135.312 10.5974 134.59 11.8649 134.59 13.2239V26.776C134.59 28.1351 135.312 29.4025 136.481 30.0841L148.108 36.8654C149.275 37.5462 150.724 37.5462 151.892 36.8654L163.519 30.0841C164.688 29.4026 165.41 28.1351 165.41 26.776V13.2239C165.41 11.8648 164.688 10.5974 163.519 9.91584Z" fill="#445964" stroke="black"/>
<path d="M196.931 1.29075L197.183 0.858838L196.931 1.29075L208.559 8.07208C210.371 9.12887 211.5 11.1031 211.5 13.2239V26.776C211.5 28.8969 210.371 30.8711 208.559 31.9279L208.806 32.3521L208.559 31.9279L196.931 38.7092C195.124 39.7634 192.877 39.7638 191.069 38.7092L190.817 39.1411L191.069 38.7092L179.441 31.9279L179.441 31.9279C177.629 30.8711 176.5 28.8969 176.5 26.776V13.2239C176.5 11.103 177.629 9.12881 179.441 8.07209L179.441 8.07207L191.069 1.29076C191.069 1.29075 191.069 1.29075 191.069 1.29075C192.876 0.236445 195.124 0.236391 196.931 1.29075ZM207.519 9.91584L207.267 10.3477L207.519 9.91583L195.892 3.1346C194.725 2.45404 193.276 2.45378 192.108 3.13458L180.481 9.91589C180.481 9.9159 180.481 9.9159 180.481 9.91591C179.312 10.5974 178.59 11.8649 178.59 13.2239V26.776C178.59 28.1351 179.312 29.4025 180.481 30.0841L192.108 36.8654C193.275 37.5462 194.724 37.5462 195.892 36.8654L207.519 30.0841C208.688 29.4026 209.41 28.1351 209.41 26.776V13.2239C209.41 11.8648 208.688 10.5974 207.519 9.91584Z" fill="#445964" stroke="black"/>
</svg>
